<svg xmlns="http://www.w3.org/2000/svg" width="32" height="32" viewBox="0 0 32 32">
  <path d="M28.671 1.317c-.465 0-.903.077-1.342.258l-5.058 2.039A15.043 15.043 0 0 0 16.129 2.556c-2.116 0-4.181.361-6.142 1.058L4.929 1.575A3.6 3.6 0 0 0 3.587 1.317C1.6 1.317 0 2.917 0 4.904l.026 12.49v.284C.594 25.085 7.665 30.891 16.103 30.891c8.465 0 15.536-5.806 16.078-13.213v-.284l.025-12.516c.052-1.961-1.548-3.561-3.535-3.561Zm-.568 16.051c-.387 5.265-5.651 9.394-11.974 9.394-6.297 0-11.561-4.129-11.974-9.394L4.129 5.678l4.49 1.832a3.224 3.224 0 0 0 2.607-.348 13.95 13.95 0 0 1 4.877-.478 13.95 13.95 0 0 1 4.903.878 3.224 3.224 0 0 0 2.607-.348l4.49-1.832Z" fill="#000"/>
  <path d="M8.335 17.678c0-1.425 1.156-2.58 2.581-2.58s2.581 1.155 2.581 2.58-1.156 2.581-2.581 2.581-2.581-1.156-2.581-2.581Z" fill="#000"/>
  <path d="M18.761 17.678c0-1.425 1.156-2.58 2.581-2.58s2.581 1.155 2.581 2.58-1.156 2.581-2.581 2.581-2.581-1.156-2.581-2.581Z" fill="#000"/>
</svg>
